<svg width="20" height="19" viewBox="0 0 20 19" fill="none" xmlns="http://www.w3.org/2000/svg">
<path d="M2.10449 1.14082C1.96988 1.14492 1.83752 1.17427 1.71524 1.22715C1.59296 1.28003 1.48325 1.35536 1.3926 1.44867C1.30196 1.54199 1.23222 1.65139 1.18751 1.77041C1.14281 1.88943 1.12405 2.01564 1.13234 2.14157C1.26683 4.30147 1.90084 9.57161 4.93638 12.8583C8.57135 16.8181 13.3053 18.1824 18.1621 17.9808C18.4225 17.9662 18.6672 17.8596 18.8469 17.6826C19.0267 17.5055 19.128 17.2712 19.1304 17.0268V13.5674C19.1274 13.2446 19.0087 12.9322 18.7934 12.6802C18.5781 12.4282 18.2786 12.2513 17.9431 12.1779L15.5108 11.6739C15.21 11.6138 14.8969 11.6397 14.6119 11.7481C14.3269 11.8566 14.0832 12.0427 13.9124 12.2823L13.3744 13.0454C13.325 13.1153 13.2512 13.1668 13.1656 13.1911C13.0801 13.2154 12.9881 13.211 12.9056 13.1786C11.6684 12.6783 6.7385 10.5184 6.19671 6.87534C6.1861 6.80498 6.19795 6.73326 6.23077 6.6692C6.26359 6.60514 6.31591 6.55161 6.38115 6.51536L7.35713 5.95739C7.62483 5.80196 7.8351 5.57324 7.95949 5.30218C8.08388 5.03112 8.11639 4.7308 8.05262 4.44186L7.51851 2.12358C7.44043 1.79875 7.24461 1.50932 6.96438 1.30454C6.68414 1.09976 6.33682 0.992295 5.98153 1.00043L2.10449 1.14082Z" stroke="#F6B426"/>
</svg>
